HIERARCHY
ROOT root
{
	OFFSET	0	13.1	24.9
	CHANNELS 6  Xposition Yposition Zposition Xrotation Yrotation Zrotation
	JOINT spine_1
	{
		OFFSET	0	9.99999	0
		CHANNELS 3  Xrotation Yrotation Zrotation
		JOINT spine_2
		{
			OFFSET	0	112	-10
			CHANNELS 3  Xrotation Yrotation Zrotation
			JOINT spine_3
			{
				OFFSET	0	206.5	19.3
				CHANNELS 3  Xrotation Yrotation Zrotation
				JOINT spine_4
				{
					OFFSET	0	110.4	14.6
					CHANNELS 3  Xrotation Yrotation Zrotation
					JOINT neck_1
					{
						OFFSET	0	71.8	-50.3
						CHANNELS 3  Xrotation Yrotation Zrotation
						JOINT neck_2
						{
							OFFSET	0	86.2	-25.8
							CHANNELS 3  Xrotation Yrotation Zrotation
							JOINT head_ee
							{
								OFFSET	0	179.8	-8.7
								CHANNELS 3  Xrotation Yrotation Zrotation
								End Site
								{
									OFFSET	1	0	0
								}
							}
						}
					}
					JOINT left_clavicle
					{
						OFFSET	-43.2	22.4	-70.8
						CHANNELS 3  Xrotation Yrotation Zrotation
						JOINT left_shoulder
						{
							OFFSET	-93.9	-5.79999	48.7
							CHANNELS 3  Xrotation Yrotation Zrotation
							JOINT left_elbow
							{
								OFFSET	-291.4	-30.8	15.2
								CHANNELS 3  Xrotation Yrotation Zrotation
								JOINT left_lowarm_twist
								{
									OFFSET	-110.7	-3.89999	13.6
									CHANNELS 3  Xrotation Yrotation Zrotation
									JOINT left_hand
									{
										OFFSET	-110.7	-3.89999	13.6
										CHANNELS 3  Xrotation Yrotation Zrotation
										JOINT left_ee
										{
											OFFSET	-80.8	-5.10001	12.1
											CHANNELS 3  Xrotation Yrotation Zrotation
											End Site
											{
												OFFSET	1	0	0
											}
										}
									}
								}
							}
						}
					}
					JOINT right_clavicle
					{
						OFFSET	43.2	22.4	-70.8
						CHANNELS 3  Xrotation Yrotation Zrotation
						JOINT right_shoulder
						{
							OFFSET	93.9	-5.79999	48.7
							CHANNELS 3  Xrotation Yrotation Zrotation
							JOINT right_elbow
							{
								OFFSET	291.4	-30.8	15.2
								CHANNELS 3  Xrotation Yrotation Zrotation
								JOINT right_lowarm_twist
								{
									OFFSET	110.7	-3.89999	13.6
									CHANNELS 3  Xrotation Yrotation Zrotation
									JOINT right_hand
									{
										OFFSET	110.7	-3.89999	13.6
										CHANNELS 3  Xrotation Yrotation Zrotation
										JOINT right_ee
										{
											OFFSET	80.8	-5.10001	12.1
											CHANNELS 3  Xrotation Yrotation Zrotation
											End Site
											{
												OFFSET	1	0	0
											}
										}
									}
								}
							}
						}
					}
				}
			}
		}
	}
	JOINT left_hip
	{
		OFFSET	-82.8	-127.5	0.300001
		CHANNELS 3  Xrotation Yrotation Zrotation
		JOINT left_knee
		{
			OFFSET	-28.2	-396.7	2.2
			CHANNELS 3  Xrotation Yrotation Zrotation
			JOINT left_ankle
			{
				OFFSET	-11.7	-411.3	35.4
				CHANNELS 3  Xrotation Yrotation Zrotation
				JOINT left_toes
				{
					OFFSET	0	-60	-88.6
					CHANNELS 3  Xrotation Yrotation Zrotation
					JOINT left_foot_ee
					{
						OFFSET	-22.5	-16.5	-42.2
						CHANNELS 3  Xrotation Yrotation Zrotation
						End Site
						{
							OFFSET	1	0	0
						}
					}
				}
			}
		}
	}
	JOINT right_hip
	{
		OFFSET	82.8	-127.5	0.300001
		CHANNELS 3  Xrotation Yrotation Zrotation
		JOINT right_knee
		{
			OFFSET	28.2	-396.7	2.2
			CHANNELS 3  Xrotation Yrotation Zrotation
			JOINT right_ankle
			{
				OFFSET	11.7	-411.3	35.4
				CHANNELS 3  Xrotation Yrotation Zrotation
				JOINT right_toes
				{
					OFFSET	0	-60	-88.6
					CHANNELS 3  Xrotation Yrotation Zrotation
					JOINT right_foot_ee
					{
						OFFSET	22.5	-16.5	-42.2
						CHANNELS 3  Xrotation Yrotation Zrotation
						End Site
						{
							OFFSET	1	0	0
						}
					}
				}
			}
		}
	}
}
MOTION
Frames: 16
Frame Time: 0.02
2929.59 769.214 -811.513 17.039 58.0838 -10.4645 -5.2455 0.195515 -0.471813 -5.24541 0.225141 -0.458416 -5.24719 0.3518 -0.370231 -5.24727 0.288914 -0.421144 4.72451 11.6638 2.30087 5.08134 18.0789 3.17491 -0.0 0.0 -0.0 5.75019 3.26684 11.1762 -6.85395 -7.73632 63.4159 0.441496 -12.3368 0.0477155 10.9322 0.255046 -1.37109 3.68358 -21.7841 15.1238 -0.0 0.0 -0.0 12.0407 16.7796 -24.2182 16.8279 18.5104 -57.0073 0.775194 21.0071 -0.143726 44.8421 0.62478 5.55007 -0.336349 -10.7439 -2.29507 0.0 0.0 0.0 4.13861 -6.87231 -8.04921 -49.0576 -1.14109 7.21614 -17.1459 30.0072 2.76257 -11.0325 0.0 0.0 -0.0 0.0 -0.0 -4.73476 -3.97842 -9.66455 -4.8512 -0.169119 -0.725085 10.7157 13.6064 1.63217 -10.5728 0.0 0.0 0.0 0.0 0.0 
2908.88 774.452 -822.955 17.3404 57.9952 -10.2981 -5.22578 0.0710446 -0.358846 -5.22571 0.0937348 -0.353598 -5.22623 0.194966 -0.309526 -5.22633 0.143636 -0.336432 4.72504 11.7016 4.022 5.02157 16.6411 5.14745 -0.0 0.0 -0.0 5.69462 5.6005 11.0854 -9.16743 -7.32835 62.7826 0.426788 -11.9378 0.0446232 9.61472 0.238244 -1.20365 3.68619 -21.3628 15.3654 -0.0 0.0 -0.0 12.176 17.6527 -24.4846 16.8457 19.5721 -56.7811 0.886228 23.7018 -0.185968 45.9539 0.694613 5.67403 -0.143514 -10.0665 -3.24873 0.0 0.0 0.0 7.60287 -7.92536 -8.4357 -45.9215 -0.885797 6.8065 -19.5315 29.0828 3.13173 -11.6605 0.0 0.0 -0.0 0.0 -0.0 -6.83117 -1.47476 -10.2798 -3.27158 -0.120809 -0.487482 10.2104 14.2676 1.56553 -9.42945 0.0 0.0 0.0 0.0 0.0 
2893.55 776.774 -831.519 17.0428 57.9589 -10.1974 -5.1165 0.0576501 -0.195384 -5.11649 0.069966 -0.191319 -5.11671 0.123552 -0.161967 -5.11673 0.0964216 -0.179447 3.93696 11.3751 5.10409 4.18524 15.2971 6.4076 -0.0 0.0 -0.0 4.98624 8.54696 9.80972 -10.4155 -7.29907 63.7427 0.47607 -13.2699 0.0553775 9.66112 0.238902 -1.20954 3.73795 -21.4752 15.6568 -0.0 0.0 -0.0 12.1847 18.3125 -24.4676 17.4949 20.138 -56.51 0.97579 25.7976 -0.223469 47.4169 0.790156 5.83507 0.0473195 -8.73963 -3.93592 0.0 0.0 0.0 9.16919 -9.33702 -7.98289 -45.0478 -0.818729 6.68999 -20.3339 28.5907 3.25121 -11.6415 0.0 0.0 -0.0 0.0 -0.0 -8.7478 -3.22885 -10.4947 -1.86353 -0.0722319 -0.276854 9.86453 13.7593 1.50917 -8.47851 0.0 0.0 0.0 0.0 0.0 
2876.92 778.559 -838.991 16.6418 57.7809 -10.2253 -4.97865 -0.00552557 -0.215776 -4.97862 0.00821596 -0.21569 -4.97861 0.0713148 -0.203725 -4.97867 0.0382453 -0.212431 3.11141 11.1043 5.73804 3.33602 14.4529 7.14319 -0.0 0.0 -0.0 4.52098 10.7117 9.01322 -11.6097 -7.18983 64.3162 0.529313 -14.6927 0.0682424 9.67767 0.239135 -1.21164 3.78728 -21.5611 15.9459 -0.0 0.0 -0.0 12.2051 18.7414 -24.4888 18.2922 20.7181 -56.3073 1.09397 28.4535 -0.277369 48.4149 0.857684 5.94352 0.214875 -7.59875 -4.5609 0.0 0.0 0.0 9.71638 -9.16011 -7.4416 -44.599 -0.784967 6.62975 -20.743 28.4331 3.31381 -11.651 0.0 0.0 -0.0 0.0 -0.0 -10.2668 -4.82205 -10.6734 -1.08486 -0.0431472 -0.160893 9.353 12.0298 1.4174 -7.7602 0.0 0.0 0.0 0.0 0.0 
2856.3 777.555 -851.968 15.2236 57.3935 -8.43907 -4.89229 0.134441 -0.349434 -4.89224 0.156404 -0.340171 -4.89315 0.249155 -0.279465 -4.8932 0.201892 -0.315307 3.68158 11.4676 6.55466 3.92227 14.2532 8.05795 -0.0 0.0 -0.0 2.11526 11.1686 4.90934 -11.3244 -6.08334 69.4566 0.594196 -16.4018 0.0856352 10.6034 0.251213 -1.32927 3.98857 -22.3451 16.8883 -0.0 0.0 -0.0 12.3519 19.136 -24.802 18.373 21.0904 -55.1666 1.2499 31.7629 -0.355619 49.238 0.9148 6.03208 0.489291 -6.65924 -5.97688 0.0 0.0 0.0 16.7031 -12.9778 -7.32712 -44.2929 -0.762219 6.58852 -24.7173 27.6669 3.93281 -12.4664 0.0 0.0 -0.0 0.0 -0.0 -11.6482 -4.51624 -11.2387 -0.43217 -0.0175541 -0.0639978 8.98121 10.2065 1.34808 -6.78531 0.0 0.0 0.0 0.0 0.0 
2841.1 772.852 -858.079 13.0102 57.5223 -6.02885 -4.346 0.173717 -0.604956 -4.34582 0.211859 -0.592676 -4.3479 0.371304 -0.508217 -4.34815 0.286382 -0.560478 5.73415 12.0905 6.66998 6.00645 14.7421 8.16543 -0.0 0.0 -0.0 0.143052 12.5685 1.72178 -10.2558 -6.25977 73.8259 0.63021 -17.3378 0.0960869 11.0995 0.256903 -1.39238 3.89868 -21.0604 16.9746 -0.0 0.0 -0.0 12.656 19.4605 -25.4837 19.0909 20.101 -54.3117 1.37471 34.2528 -0.423629 50.5757 1.01033 6.17424 0.844779 -4.12289 -7.31482 0.0 0.0 0.0 18.7434 -17.3782 -6.23759 -45.4161 -0.846781 6.73922 -24.2626 24.1015 3.78652 -12.6532 0.0 0.0 -0.0 0.0 -0.0 -11.977 -6.65215 -12.0681 0.313504 0.0130362 0.0463434 10.9477 7.71952 1.60972 -4.46874 0.0 0.0 0.0 0.0 0.0 
2827.28 763.783 -863.664 11.6239 57.577 -4.50362 -4.0979 0.262093 -0.634958 -4.09772 0.301965 -0.616994 -4.10095 0.462425 -0.507966 -4.10111 0.3764 -0.574621 6.57245 12.5105 6.51935 6.86932 15.3889 7.98602 -0.0 0.0 -0.0 -0.0442247 13.3524 1.50227 -10.3942 -5.48563 73.5861 0.507383 -14.1088 0.0627883 11.8744 0.264696 -1.49105 3.8484 -20.7358 16.8049 -0.0 0.0 -0.0 12.6951 20.219 -25.5213 21.602 21.1526 -53.5643 1.37115 34.1837 -0.421626 51.0446 1.0446 6.22355 0.826052 -4.56774 -7.36718 0.0 0.0 0.0 21.0526 -21.2202 -6.2794 -41.3222 -0.553019 6.18236 -24.3643 21.2842 3.75585 -13.0183 0.0 0.0 -0.0 0.0 -0.0 -11.6271 -5.69812 -12.1491 -0.719503 -0.0289569 -0.106618 17.0224 8.76803 2.45135 -2.89799 0.0 0.0 0.0 0.0 0.0 
2810.59 760.63 -868.837 9.66946 57.3235 -2.88696 -3.99521 0.107862 -0.754527 -3.9949 0.155655 -0.746135 -3.99664 0.356829 -0.673516 -3.99719 0.245985 -0.721415 6.61052 12.074 6.19885 6.88795 14.9249 7.60151 -0.0 0.0 -0.0 -0.614856 13.6327 0.601321 -11.4359 -5.51301 75.7128 0.514797 -14.3066 0.064608 12.5861 0.270678 -1.58176 4.06459 -20.638 18.3431 -0.0 0.0 -0.0 12.7282 19.9448 -25.6177 23.4921 22.0525 -53.7877 1.47001 36.0599 -0.47851 53.6459 1.242 6.49192 0.95208 -4.63601 -8.23152 0.0 0.0 0.0 20.201 -28.2174 -6.08386 -32.1718 -0.0452276 4.87274 -22.2361 21.6234 3.43181 -14.507 0.0 0.0 -0.0 0.0 -0.0 -11.765 -5.6632 -11.5473 -0.691258 -0.0278454 -0.102426 17.544 7.6139 2.50625 -0.466597 0.0 0.0 0.0 0.0 0.0 
2792.17 759.36 -875.665 8.07885 58.4856 -0.77213 -3.8884 -0.0532368 -0.950056 -3.8879 0.00732287 -0.951518 -3.88733 0.269655 -0.912542 -3.88848 0.122159 -0.943673 7.16847 12.9607 6.19845 7.49951 16.2948 7.60452 -0.0 0.0 -0.0 -1.00319 13.5647 -0.0441437 -8.89748 -4.03583 77.4288 0.320345 -9.01724 0.0252603 13.4079 0.276183 -1.68658 3.67925 -18.3532 16.8947 -0.0 0.0 -0.0 12.7242 20.1164 -25.5962 23.1243 22.4471 -52.5531 1.57396 37.9405 -0.541074 53.0624 1.19666 6.43249 1.12579 -2.96038 -8.72897 0.0 0.0 0.0 18.814 -28.8491 -8.22363 -23.8741 0.229565 3.63005 -20.6699 20.2848 3.17271 -16.223 0.0 0.0 -0.0 0.0 -0.0 -10.631 -6.52476 -12.2796 -3.60531 -0.131561 -0.537571 18.7132 7.66309 2.65899 2.36696 -0.0 -0.0 0.0 0.0 0.0 
2776.84 755.394 -880.215 6.68992 57.7567 0.216932 -3.90087 -0.0460998 -0.994404 -3.90032 0.0172669 -0.995322 -3.89988 0.291515 -0.951835 -3.90111 0.137539 -0.985925 6.93814 13.0531 5.87405 7.28396 16.803 7.22843 -0.0 0.0 -0.0 -1.2536 13.7837 -0.422714 -8.8227 -3.54273 78.3988 0.248832 -7.02724 0.0152787 13.7021 0.277788 -1.72412 3.56597 -17.1851 16.7083 -0.0 0.0 -0.0 12.5727 20.5002 -25.217 23.8831 22.7857 -52.8534 1.71613 40.3651 -0.630862 54.0264 1.2719 6.53043 1.47057 -2.43415 -10.8414 0.0 0.0 0.0 17.9289 -31.4958 -10.0551 -15.8242 0.321991 2.39934 -18.2119 19.282 2.78297 -17.1781 0.0 0.0 -0.0 0.0 -0.0 -10.8211 -6.20663 -11.6363 -3.83807 -0.138888 -0.572542 21.3723 7.85191 2.99916 6.07605 -0.0 -0.0 0.0 0.0 0.0 
2763.78 755.897 -888.794 5.54552 58.8843 2.04119 -3.84745 -0.0684091 -1.13443 -3.84674 0.00391164 -1.13649 -3.84583 0.316647 -1.0915 -3.84747 0.140304 -1.1278 6.27165 13.8837 6.64809 6.65286 17.6963 8.16848 -0.0 0.0 -0.0 -1.01128 13.4639 -0.0716349 -7.40345 -3.53572 78.5368 0.212621 -6.01271 0.0111667 13.8556 0.278549 -1.74371 3.28515 -14.4019 16.1344 -0.0 0.0 -0.0 12.5317 20.6117 -25.114 23.5111 22.8246 -52.0128 1.77654 41.3455 -0.67038 55.7023 1.4066 6.69764 1.74835 -2.22853 -12.6454 0.0 0.0 0.0 15.1525 -36.9046 -12.9034 -11.0423 0.294842 1.66636 -12.6521 21.2599 1.93855 -15.9464 0.0 0.0 -0.0 0.0 -0.0 -8.98875 -5.99424 -12.5222 -7.69722 -0.239551 -1.15612 20.4414 7.58929 2.87879 9.35732 -0.0 -0.0 0.0 0.0 0.0 
2749.84 753.75 -889.131 5.17019 59.7384 2.64978 -3.76148 -0.0923125 -1.20044 -3.76068 -0.015744 -1.20388 -3.75923 0.314551 -1.16217 -3.7611 0.127073 -1.19726 6.12266 14.496 7.25077 6.53237 18.245 8.88666 -0.0 0.0 -0.0 -0.873293 13.2615 0.127136 -6.66632 -3.53326 78.7508 0.190577 -5.39323 0.00897613 14.0068 0.279247 -1.76302 3.07946 -12.3642 15.6699 -0.0 0.0 -0.0 12.3875 20.6442 -24.7784 23.206 22.3648 -51.3215 1.80929 41.865 -0.692127 56.9416 1.50934 6.81874 1.92937 -1.82931 -13.7256 0.0 0.0 0.0 14.0804 -41.0955 -14.5332 -6.02662 0.200804 0.902686 -8.65185 22.6096 1.3265 -15.1047 0.0 0.0 -0.0 0.0 -0.0 -7.88182 -5.72119 -12.0022 -10.5488 -0.28856 -1.5909 20.3708 7.45842 2.86818 11.7606 -0.0 -0.0 0.0 0.0 0.0 
2737.1 750.636 -893.593 4.5686 60.4498 3.81867 -3.79728 -0.21119 -1.4071 -3.79619 -0.121234 -1.41769 -3.7915 0.272425 -1.39654 -3.79422 0.0484708 -1.42204 5.99442 14.6539 7.36311 6.41264 18.4517 9.02397 -0.0 0.0 -0.0 -0.541411 12.9439 0.632498 -6.50841 -3.5674 79.0326 0.192627 -5.45089 0.00916977 14.1324 0.279788 -1.77905 2.90091 -10.5874 15.2445 -0.0 0.0 -0.0 12.4796 20.7181 -24.9854 23.1763 22.1103 -50.7302 1.79827 41.6911 -0.684782 58.1683 1.6136 6.93641 2.10542 -1.26142 -14.7128 0.0 0.0 0.0 11.777 -43.6062 -17.516 -2.46649 0.0936677 0.366906 -5.90047 24.9139 0.910737 -14.093 0.0 0.0 -0.0 0.0 -0.0 -7.22663 -5.54075 -12.697 -12.569 -0.310158 -1.9001 20.1032 6.85229 2.82673 13.5568 -0.0 -0.0 0.0 0.0 0.0 
2716.34 745.792 -898.404 2.02654 60.8575 5.95821 -3.62088 -0.197072 -1.35064 -3.61987 -0.110736 -1.36044 -3.61574 0.262701 -1.33943 -3.61824 0.0478876 -1.3641 5.99142 14.9109 7.49164 6.42521 18.7787 9.17815 -0.0 0.0 -0.0 -0.362849 12.6726 0.893887 -5.83801 -3.56208 78.8976 0.195201 -5.52328 0.00941597 14.3395 0.280604 -1.80549 2.81036 -9.61785 15.051 -0.0 0.0 -0.0 12.4605 20.788 -24.9359 22.7446 22.0303 -49.6494 1.81274 41.9191 -0.694427 58.4069 1.63417 6.95904 2.19248 -1.33384 -15.3423 0.0 0.0 0.0 11.8843 -46.2818 -18.4008 -0.678453 0.0273409 0.100526 -2.56762 25.5422 0.395259 -13.1085 0.0 0.0 -0.0 0.0 -0.0 -7.24531 -5.2676 -12.2171 -13.2938 -0.315246 -2.01119 19.9198 6.54433 2.79981 14.9901 -0.0 -0.0 0.0 0.0 0.0 
2695.42 740.286 -905.76 2.05523 61.6795 5.98481 -3.61494 -0.270844 -1.62342 -3.61349 -0.167007 -1.63736 -3.6065 0.283455 -1.62127 -3.61017 0.023885 -1.64568 6.20385 14.6682 6.79202 6.63775 18.9297 8.35129 -0.0 0.0 -0.0 -0.21634 12.5033 1.11653 -5.9697 -3.64078 78.6094 0.198976 -5.62943 0.00978283 14.0747 0.279544 -1.77168 2.74399 -8.21289 15.2134 -0.0 0.0 -0.0 12.409 20.6292 -24.8292 22.7255 21.4368 -48.5564 1.78655 41.5051 -0.676999 59.0123 1.68678 7.01607 2.24095 -1.14604 -15.6041 0.0 0.0 0.0 11.4378 -47.7504 -18.9946 -0.026584 0.00109367 0.00393296 -2.18953 27.0736 0.339714 -12.4158 0.0 0.0 -0.0 0.0 -0.0 -7.59606 -5.07641 -12.3392 -14.7946 -0.321315 -2.24137 20.9796 4.91565 2.91431 16.4649 -0.0 -0.0 0.0 0.0 0.0 
2671.3 734.837 -910.881 1.41567 61.6922 7.36705 -3.68988 -0.311849 -1.85785 -3.68798 -0.193019 -1.87392 -3.67872 0.324952 -1.8556 -3.68353 0.0278709 -1.88362 6.84742 14.2309 6.69352 7.25291 18.0906 8.20995 -0.0 0.0 -0.0 -0.359604 11.7853 0.788332 -6.01033 -3.23729 80.1606 0.200828 -5.68148 0.00996534 14.083 0.27958 -1.77274 2.6201 -7.72887 14.5613 -0.0 0.0 -0.0 12.4571 20.8331 -24.9246 22.5332 20.5677 -48.6432 1.74005 40.7568 -0.646416 59.1755 1.70108 7.03135 2.24783 0.320231 -15.0702 0.0 0.0 0.0 12.4392 -49.4616 -18.8405 -3.97661 0.143181 0.59337 -1.81528 29.3753 0.285529 -9.08734 0.0 0.0 -0.0 0.0 -0.0 -7.93697 -4.46166 -12.8495 -15.6853 -0.322065 -2.37804 23.3913 1.82811 3.178 17.6022 -0.0 -0.0 0.0 0.0 0.0 
